<svg width="45" height="45" viewBox="0 0 45 45" fill="none" xmlns="http://www.w3.org/2000/svg">
<rect width="45" height="45" rx="5.92105" fill="#E3FDF7"/>
<path d="M16.2891 10.2896V14.2896" stroke="#28574E" stroke-width="1.5" stroke-linecap="round" stroke-linejoin="round"/>
<path d="M24.2891 10.2896V14.2896" stroke="#28574E" stroke-width="1.5" stroke-linecap="round" stroke-linejoin="round"/>
<path d="M27.2891 12.2896H13.2891C12.1845 12.2896 11.2891 13.185 11.2891 14.2896V28.2896C11.2891 29.3941 12.1845 30.2896 13.2891 30.2896H27.2891C28.3936 30.2896 29.2891 29.3941 29.2891 28.2896V14.2896C29.2891 13.185 28.3936 12.2896 27.2891 12.2896Z" stroke="#28574E" stroke-width="1.5" stroke-linecap="round" stroke-linejoin="round"/>
<path d="M11.2891 18.2896H29.2891" stroke="#28574E" stroke-width="1.5" stroke-linecap="round" stroke-linejoin="round"/>
<path d="M16.2891 22.2896H16.2991" stroke="#28574E" stroke-width="1.5" stroke-linecap="round" stroke-linejoin="round"/>
<path d="M20.2891 22.2896H20.2991" stroke="#28574E" stroke-width="1.5" stroke-linecap="round" stroke-linejoin="round"/>
<path d="M24.2891 22.2896H24.2991" stroke="#28574E" stroke-width="1.5" stroke-linecap="round" stroke-linejoin="round"/>
<path d="M16.2891 26.2896H16.2991" stroke="#28574E" stroke-width="1.5" stroke-linecap="round" stroke-linejoin="round"/>
<path d="M20.2891 26.2896H20.2991" stroke="#28574E" stroke-width="1.5" stroke-linecap="round" stroke-linejoin="round"/>
<path d="M24.2891 26.2896H24.2991" stroke="#28574E" stroke-width="1.5" stroke-linecap="round" stroke-linejoin="round"/>
</svg>
