<svg width="22" height="22" viewBox="0 0 22 22" fill="none" xmlns="http://www.w3.org/2000/svg">
<path d="M10.5659 2.10406C10.6061 2.0229 10.6681 1.95458 10.7451 1.90682C10.822 1.85905 10.9108 1.83374 11.0013 1.83374C11.0919 1.83374 11.1806 1.85905 11.2576 1.90682C11.3345 1.95458 11.3966 2.0229 11.4367 2.10406L13.5542 6.39314C13.6937 6.67545 13.8997 6.91968 14.1543 7.10489C14.409 7.2901 14.7048 7.41075 15.0163 7.45648L19.7518 8.14948C19.8416 8.16248 19.9259 8.20033 19.9952 8.25874C20.0645 8.31716 20.1161 8.39381 20.1442 8.48003C20.1722 8.56625 20.1756 8.6586 20.1539 8.74663C20.1322 8.83465 20.0862 8.91485 20.0213 8.97814L16.5967 12.313C16.3708 12.5331 16.2018 12.8048 16.1043 13.1046C16.0067 13.4045 15.9835 13.7236 16.0366 14.0345L16.8451 18.7461C16.8609 18.8358 16.8512 18.9282 16.8171 19.0126C16.783 19.097 16.7258 19.1702 16.6522 19.2237C16.5785 19.2772 16.4912 19.309 16.4004 19.3153C16.3095 19.3216 16.2187 19.3023 16.1383 19.2595L11.9052 17.0338C11.6262 16.8874 11.3159 16.8108 11.0009 16.8108C10.6858 16.8108 10.3755 16.8874 10.0966 17.0338L5.86432 19.2595C5.78396 19.302 5.69327 19.3212 5.60257 19.3147C5.51187 19.3083 5.4248 19.2765 5.35126 19.223C5.27772 19.1695 5.22067 19.0965 5.18659 19.0122C5.15251 18.9279 5.14278 18.8357 5.15849 18.7461L5.96607 14.0354C6.01942 13.7244 5.99631 13.4051 5.89873 13.105C5.80116 12.8049 5.63205 12.5331 5.40599 12.313L1.98132 8.97906C1.91587 8.91584 1.86948 8.83551 1.84746 8.74721C1.82543 8.65892 1.82864 8.56621 1.85673 8.47965C1.88482 8.39309 1.93665 8.31616 2.00633 8.25763C2.076 8.19909 2.16072 8.1613 2.25082 8.14856L6.98541 7.45648C7.29731 7.4111 7.59351 7.29061 7.84853 7.10538C8.10354 6.92015 8.30972 6.67572 8.44932 6.39314L10.5659 2.10406Z" fill="#FFB44C"/>
</svg>
