<svg width="60" height="60" viewBox="0 0 60 60" fill="none" xmlns="http://www.w3.org/2000/svg">
<circle cx="30" cy="30" r="30" fill="#E1E3E3"/>
<path d="M36.1111 18.9847C37.4556 18.9847 38.6065 19.4634 39.5639 20.4209C40.5213 21.3783 41 22.5292 41 23.8736C41 24.0977 40.9847 24.3982 40.9542 24.775C40.9236 25.1519 40.8778 25.5847 40.8167 26.0736L39.1361 38.3875C39.0343 39.1616 38.6829 39.7931 38.0819 40.282C37.481 40.7709 36.7935 41.0153 36.0194 41.0153C35.5509 41.0153 35.1181 40.9134 34.7208 40.7097C34.3236 40.506 33.9926 40.2209 33.7278 39.8542L30.4583 35.0875C30.4176 35.006 30.3514 34.95 30.2597 34.9195C30.1681 34.8889 30.0713 34.8736 29.9694 34.8736C29.888 34.8736 29.725 34.9653 29.4806 35.1486L26.3028 39.7625C26.0176 40.1699 25.6662 40.4806 25.2486 40.6945C24.831 40.9084 24.388 41.0153 23.9194 41.0153C23.1454 41.0153 22.463 40.7658 21.8722 40.2667C21.2815 39.7676 20.9352 39.131 20.8333 38.357L19.1833 26.0736C19.1222 25.5847 19.0764 25.1519 19.0458 24.775C19.0153 24.3982 19 24.0977 19 23.8736C19 22.5292 19.4787 21.3783 20.4361 20.4209C21.3935 19.4634 22.5444 18.9847 23.8889 18.9847C24.6222 18.9847 25.2079 19.0815 25.6458 19.275C26.0838 19.4685 26.5065 19.6773 26.9139 19.9014C27.3213 20.1255 27.7542 20.3343 28.2125 20.5278C28.6708 20.7213 29.2667 20.8181 30 20.8181C30.7333 20.8181 31.3292 20.7213 31.7875 20.5278C32.2458 20.3343 32.6787 20.1255 33.0861 19.9014C33.4935 19.6773 33.9213 19.4685 34.3694 19.275C34.8176 19.0815 35.3981 18.9847 36.1111 18.9847ZM36.1111 21.4292C35.6426 21.4292 35.2301 21.5259 34.8736 21.7195C34.5171 21.913 34.125 22.1218 33.6972 22.3459C33.2694 22.5699 32.7704 22.7787 32.2 22.9722C31.6296 23.1658 30.8963 23.2625 30 23.2625C29.1037 23.2625 28.3704 23.1658 27.8 22.9722C27.2296 22.7787 26.7306 22.5699 26.3028 22.3459C25.875 22.1218 25.4829 21.913 25.1264 21.7195C24.7699 21.5259 24.3574 21.4292 23.8889 21.4292C23.2167 21.4292 22.6412 21.6685 22.1625 22.1472C21.6838 22.6259 21.4444 23.2014 21.4444 23.8736C21.4444 24.0366 21.4546 24.2709 21.475 24.5764C21.4954 24.882 21.5361 25.2384 21.5972 25.6459L23.2778 38.0209C23.2981 38.1838 23.3694 38.3111 23.4917 38.4028C23.6139 38.4945 23.7565 38.5403 23.9194 38.5403C24.0213 38.5403 24.113 38.5199 24.1944 38.4792C24.2759 38.4384 24.337 38.3773 24.3778 38.2959L27.4639 33.7736C27.7491 33.3662 28.1157 33.0403 28.5639 32.7959C29.012 32.5514 29.4907 32.4292 30 32.4292C30.5093 32.4292 30.988 32.5514 31.4361 32.7959C31.8843 33.0403 32.2509 33.3662 32.5361 33.7736L35.6833 38.3875C35.7241 38.4486 35.775 38.4945 35.8361 38.525C35.8972 38.5556 35.9685 38.5709 36.05 38.5709C36.213 38.5709 36.3606 38.525 36.4931 38.4334C36.6255 38.3417 36.7019 38.2144 36.7222 38.0514L38.4028 25.6459C38.4639 25.2384 38.5046 24.882 38.525 24.5764C38.5454 24.2709 38.5556 24.0366 38.5556 23.8736C38.5556 23.2014 38.3162 22.6259 37.8375 22.1472C37.3588 21.6685 36.7833 21.4292 36.1111 21.4292Z" fill="#191C1D"/>
</svg>
